<?xml version="1.0" encoding="UTF-8" standalone="no"?>
<!-- Created with Inkscape (http://www.inkscape.org/) -->

<svg
   xmlns:osb="http://www.openswatchbook.org/uri/2009/osb"
   xmlns:dc="http://purl.org/dc/elements/1.1/"
   xmlns:cc="http://creativecommons.org/ns#"
   xmlns:rdf="http://www.w3.org/1999/02/22-rdf-syntax-ns#"
   xmlns:svg="http://www.w3.org/2000/svg"
   xmlns="http://www.w3.org/2000/svg"
   xmlns:sodipodi="http://sodipodi.sourceforge.net/DTD/sodipodi-0.dtd"
   xmlns:inkscape="http://www.inkscape.org/namespaces/inkscape"
   width="7.6999998mm"
   height="6.5mm"
   viewBox="0 0 7.6999998 6.5"
   version="1.1"
   id="svg8"
   inkscape:version="0.92.2 5c3e80d, 2017-08-06"
   sodipodi:docname="logo.svg">
  <defs
     id="defs2">
    <linearGradient
       id="linearGradient2287"
       osb:paint="solid">
      <stop
         style="stop-color:#ffffff;stop-opacity:1;"
         offset="0"
         id="stop2285" />
    </linearGradient>
  </defs>
  <sodipodi:namedview
     id="base"
     pagecolor="#ffffff"
     bordercolor="#666666"
     borderopacity="1.0"
     inkscape:pageopacity="0.0"
     inkscape:pageshadow="2"
     inkscape:zoom="22.4"
     inkscape:cx="18.891025"
     inkscape:cy="12.237677"
     inkscape:document-units="mm"
     inkscape:current-layer="layer1"
     showgrid="false"
     inkscape:window-width="1680"
     inkscape:window-height="952"
     inkscape:window-x="0"
     inkscape:window-y="1"
     inkscape:window-maximized="1" />
  <metadata
     id="metadata5">
    <rdf:RDF>
      <cc:Work
         rdf:about="">
        <dc:format>image/svg+xml</dc:format>
        <dc:type
           rdf:resource="http://purl.org/dc/dcmitype/StillImage" />
        <dc:title></dc:title>
      </cc:Work>
    </rdf:RDF>
  </metadata>
  <g
     inkscape:label="Layer 1"
     inkscape:groupmode="layer"
     id="layer1"
     transform="translate(0,-290.5)">
    <path
       sodipodi:type="spiral"
       style="fill:none;fill-rule:evenodd;stroke:#005a00;stroke-width:0.26458332;stroke-opacity:1"
       id="path819"
       sodipodi:cx="4.0452499"
       sodipodi:cy="291.31168"
       sodipodi:expansion="9.7299995"
       sodipodi:revolution="3.2"
       sodipodi:radius="2.6231673"
       sodipodi:argument="-18.420521"
       sodipodi:t0="0"
       d="m 4.0452499,291.31168 c 0,0 0,0 0,0 0,0 0,0 0,0 -6e-7,-1e-5 2.1e-6,-1e-5 3.7e-6,-1e-5 2.37e-5,0 3.49e-5,4e-5 3.62e-5,5e-5 1.69e-5,2e-4 -2.749e-4,2.6e-4 -4.093e-4,2.6e-4 -0.00106,-1e-5 -0.00137,-0.002 -0.00129,-0.002 4.506e-4,-0.005 0.00654,-0.006 0.010044,-0.005 0.015776,0.003 0.019005,0.0236 0.015957,0.0363 -0.011474,0.0477 -0.073861,0.0562 -0.1131918,0.0444 -0.1286725,-0.0383 -0.1484515,-0.20601 -0.1107213,-0.31412 0.1102386,-0.31588 0.5226702,-0.3583 0.792369,-0.25187 0.7178066,0.28326 0.8021989,1.22518 0.531589,1.84637 -0.2626174,0.60284 -0.8133422,1.0382 -1.4250665,1.25172"
       inkscape:export-xdpi="96"
       inkscape:export-ydpi="96"
       transform="rotate(14.098298,3.9764385,295.81546)" />
    <path
       d="m 10.022608,281.86584 c 0,0 0,0 0,0 0,0 0,0 0,0 -10e-7,0 2e-6,0 3e-6,0 2.4e-5,0 3.5e-5,4e-5 3.7e-5,5e-5 1.7e-5,1.9e-4 -2.75e-4,2.6e-4 -4.1e-4,2.6e-4 -0.0011,-1e-5 -0.0014,-0.002 -0.0013,-0.002 4.51e-4,-0.005 0.0065,-0.006 0.01004,-0.005 0.01578,0.003 0.019,0.0236 0.01596,0.0363 -0.01147,0.0477 -0.07386,0.0562 -0.1131914,0.0445 -0.1286725,-0.0383 -0.1484516,-0.20601 -0.1107213,-0.31412 0.1102386,-0.31588 0.5226707,-0.3583 0.7923687,-0.25187 0.717807,0.28326 0.802199,1.22518 0.531589,1.84637 -0.262617,0.60284 -0.813342,1.0382 -1.4250663,1.25172"
       sodipodi:t0="0"
       sodipodi:argument="-18.420521"
       sodipodi:radius="2.6231673"
       sodipodi:revolution="3.2"
       sodipodi:expansion="9.7299995"
       sodipodi:cy="281.86584"
       sodipodi:cx="10.022608"
       id="path821"
       style="fill:none;fill-rule:evenodd;stroke:#005a00;stroke-width:0.26458332;stroke-opacity:1"
       sodipodi:type="spiral"
       transform="rotate(74.415162,0.81275749,285.65343)"
       inkscape:export-xdpi="96"
       inkscape:export-ydpi="96" />
    <path
       transform="rotate(-166.9106,7.5396764,289.50716)"
       sodipodi:type="spiral"
       style="fill:none;fill-rule:evenodd;stroke:#005a00;stroke-width:0.26458332;stroke-opacity:1"
       id="path823"
       sodipodi:cx="10.022608"
       sodipodi:cy="281.86584"
       sodipodi:expansion="9.7299995"
       sodipodi:revolution="3.2"
       sodipodi:radius="2.6231673"
       sodipodi:argument="-18.420521"
       sodipodi:t0="0"
       d="m 10.022608,281.86584 c 0,0 0,0 0,0 0,0 0,0 0,0 -10e-7,0 2e-6,0 3e-6,0 2.4e-5,0 3.5e-5,4e-5 3.7e-5,5e-5 1.7e-5,1.9e-4 -2.75e-4,2.6e-4 -4.1e-4,2.6e-4 -0.0011,-1e-5 -0.0014,-0.002 -0.0013,-0.002 4.51e-4,-0.005 0.0065,-0.006 0.01004,-0.005 0.01578,0.003 0.019,0.0236 0.01596,0.0363 -0.01147,0.0477 -0.07386,0.0562 -0.1131914,0.0445 -0.1286725,-0.0383 -0.1484516,-0.20601 -0.1107213,-0.31412 0.1102386,-0.31588 0.5226707,-0.3583 0.7923687,-0.25187 0.717807,0.28326 0.802199,1.22518 0.531589,1.84637 -0.262617,0.60284 -0.813342,1.0382 -1.4250663,1.25172"
       inkscape:export-xdpi="96"
       inkscape:export-ydpi="96" />
    <path
       d="m 10.022608,281.86584 c 0,0 0,0 0,0 0,0 0,0 0,0 -10e-7,0 2e-6,0 3e-6,0 2.4e-5,0 3.5e-5,4e-5 3.7e-5,5e-5 1.7e-5,1.9e-4 -2.75e-4,2.6e-4 -4.1e-4,2.6e-4 -0.0011,-1e-5 -0.0014,-0.002 -0.0013,-0.002 4.51e-4,-0.005 0.0065,-0.006 0.01004,-0.005 0.01578,0.003 0.019,0.0236 0.01596,0.0363 -0.01147,0.0477 -0.07386,0.0562 -0.1131914,0.0445 -0.1286725,-0.0383 -0.1484516,-0.20601 -0.1107213,-0.31412 0.1102386,-0.31588 0.5226707,-0.3583 0.7923687,-0.25187 0.717807,0.28326 0.802199,1.22518 0.531589,1.84637 -0.262617,0.60284 -0.813342,1.0382 -1.4250663,1.25172"
       sodipodi:t0="0"
       sodipodi:argument="-18.420521"
       sodipodi:radius="2.6231673"
       sodipodi:revolution="3.2"
       sodipodi:expansion="9.7299995"
       sodipodi:cy="281.86584"
       sodipodi:cx="10.022608"
       id="path825"
       style="fill:none;fill-rule:evenodd;stroke:#005a00;stroke-width:0.26499999;stroke-linecap:round;stroke-linejoin:round;stroke-miterlimit:4;stroke-dasharray:none;stroke-opacity:1"
       sodipodi:type="spiral"
       transform="rotate(-37.079313,20.91713,297.54995)"
       inkscape:export-xdpi="96"
       inkscape:export-ydpi="96" />
    <path
       transform="rotate(-134.86963,8.524535,290.74512)"
       sodipodi:type="spiral"
       style="fill:none;fill-rule:evenodd;stroke:#005a00;stroke-width:0.26458332;stroke-opacity:1"
       id="path827"
       sodipodi:cx="10.022608"
       sodipodi:cy="281.86584"
       sodipodi:expansion="9.7299995"
       sodipodi:revolution="3.2"
       sodipodi:radius="2.6231673"
       sodipodi:argument="-18.420521"
       sodipodi:t0="0"
       d="m 10.022608,281.86584 c 0,0 0,0 0,0 0,0 0,0 0,0 -10e-7,0 2e-6,0 3e-6,0 2.4e-5,0 3.5e-5,4e-5 3.7e-5,5e-5 1.7e-5,1.9e-4 -2.75e-4,2.6e-4 -4.1e-4,2.6e-4 -0.0011,-1e-5 -0.0014,-0.002 -0.0013,-0.002 4.51e-4,-0.005 0.0065,-0.006 0.01004,-0.005 0.01578,0.003 0.019,0.0236 0.01596,0.0363 -0.01147,0.0477 -0.07386,0.0562 -0.1131914,0.0445 -0.1286725,-0.0383 -0.1484516,-0.20601 -0.1107213,-0.31412 0.1102386,-0.31588 0.5226707,-0.3583 0.7923687,-0.25187 0.717807,0.28326 0.802199,1.22518 0.531589,1.84637 -0.262617,0.60284 -0.813342,1.0382 -1.4250663,1.25172"
       inkscape:export-xdpi="96"
       inkscape:export-ydpi="96" />
    <path
       inkscape:export-ydpi="96"
       inkscape:export-xdpi="96"
       d="m 10.022608,281.86584 c 0,0 0,0 0,0 0,0 0,0 0,0 -10e-7,0 2e-6,0 3e-6,0 2.4e-5,0 3.5e-5,4e-5 3.7e-5,5e-5 1.7e-5,1.9e-4 -2.75e-4,2.6e-4 -4.1e-4,2.6e-4 -0.0011,-1e-5 -0.0014,-0.002 -0.0013,-0.002 4.51e-4,-0.005 0.0065,-0.006 0.01004,-0.005 0.01578,0.003 0.019,0.0236 0.01596,0.0363 -0.01147,0.0477 -0.07386,0.0562 -0.1131914,0.0445 -0.1286725,-0.0383 -0.1484516,-0.20601 -0.1107213,-0.31412 0.1102386,-0.31588 0.5226707,-0.3583 0.7923687,-0.25187 0.717807,0.28326 0.802199,1.22518 0.531589,1.84637 -0.262617,0.60284 -0.813342,1.0382 -1.4250663,1.25172"
       sodipodi:t0="0"
       sodipodi:argument="-18.420521"
       sodipodi:radius="2.6231673"
       sodipodi:revolution="3.2"
       sodipodi:expansion="9.7299995"
       sodipodi:cy="281.86584"
       sodipodi:cx="10.022608"
       id="path2691"
       style="fill:none;fill-rule:evenodd;stroke:#005a00;stroke-width:0.26458332;stroke-opacity:1"
       sodipodi:type="spiral"
       transform="rotate(118.73235,3.957123,287.50409)" />
    <path
       inkscape:export-ydpi="96"
       inkscape:export-xdpi="96"
       transform="rotate(-86.243789,11.701021,292.53722)"
       sodipodi:type="spiral"
       style="fill:none;fill-rule:evenodd;stroke:#005a00;stroke-width:0.26458332;stroke-opacity:1"
       id="path2693"
       sodipodi:cx="10.022608"
       sodipodi:cy="281.86584"
       sodipodi:expansion="9.7299995"
       sodipodi:revolution="3.2"
       sodipodi:radius="2.6231673"
       sodipodi:argument="-18.420521"
       sodipodi:t0="0"
       d="m 10.022608,281.86584 c 0,0 0,0 0,0 0,0 0,0 0,0 -10e-7,0 2e-6,0 3e-6,0 2.4e-5,0 3.5e-5,4e-5 3.7e-5,5e-5 1.7e-5,1.9e-4 -2.75e-4,2.6e-4 -4.1e-4,2.6e-4 -0.0011,-1e-5 -0.0014,-0.002 -0.0013,-0.002 4.51e-4,-0.005 0.0065,-0.006 0.01004,-0.005 0.01578,0.003 0.019,0.0236 0.01596,0.0363 -0.01147,0.0477 -0.07386,0.0562 -0.1131914,0.0445 -0.1286725,-0.0383 -0.1484516,-0.20601 -0.1107213,-0.31412 0.1102386,-0.31588 0.5226707,-0.3583 0.7923687,-0.25187 0.717807,0.28326 0.802199,1.22518 0.531589,1.84637 -0.262617,0.60284 -0.813342,1.0382 -1.4250663,1.25172" />
    <path
       inkscape:export-ydpi="96"
       inkscape:export-xdpi="96"
       transform="matrix(0.51008659,-0.38548603,0.38548603,0.51008659,-110.74206,152.55674)"
       sodipodi:type="spiral"
       style="fill:none;fill-rule:evenodd;stroke:#005a00;stroke-width:0.26499999;stroke-linecap:round;stroke-linejoin:round;stroke-miterlimit:4;stroke-dasharray:none;stroke-opacity:1"
       id="path2711"
       sodipodi:cx="10.022608"
       sodipodi:cy="281.86584"
       sodipodi:expansion="9.7299995"
       sodipodi:revolution="3.2"
       sodipodi:radius="2.6231673"
       sodipodi:argument="-18.420521"
       sodipodi:t0="0"
       d="m 10.022608,281.86584 c 0,0 0,0 0,0 0,0 0,0 0,0 -10e-7,0 2e-6,0 3e-6,0 2.4e-5,0 3.5e-5,4e-5 3.7e-5,5e-5 1.7e-5,1.9e-4 -2.75e-4,2.6e-4 -4.1e-4,2.6e-4 -0.0011,-1e-5 -0.0014,-0.002 -0.0013,-0.002 4.51e-4,-0.005 0.0065,-0.006 0.01004,-0.005 0.01578,0.003 0.019,0.0236 0.01596,0.0363 -0.01147,0.0477 -0.07386,0.0562 -0.1131914,0.0445 -0.1286725,-0.0383 -0.1484516,-0.20601 -0.1107213,-0.31412 0.1102386,-0.31588 0.5226707,-0.3583 0.7923687,-0.25187 0.717807,0.28326 0.802199,1.22518 0.531589,1.84637 -0.262617,0.60284 -0.813342,1.0382 -1.4250663,1.25172" />
    <path
       d="m 10.022608,281.86584 c 0,0 0,0 0,0 0,0 0,0 0,0 -10e-7,0 2e-6,0 3e-6,0 2.4e-5,0 3.5e-5,4e-5 3.7e-5,5e-5 1.7e-5,1.9e-4 -2.75e-4,2.6e-4 -4.1e-4,2.6e-4 -0.0011,-1e-5 -0.0014,-0.002 -0.0013,-0.002 4.51e-4,-0.005 0.0065,-0.006 0.01004,-0.005 0.01578,0.003 0.019,0.0236 0.01596,0.0363 -0.01147,0.0477 -0.07386,0.0562 -0.1131914,0.0445 -0.1286725,-0.0383 -0.1484516,-0.20601 -0.1107213,-0.31412 0.1102386,-0.31588 0.5226707,-0.3583 0.7923687,-0.25187 0.717807,0.28326 0.802199,1.22518 0.531589,1.84637 -0.262617,0.60284 -0.813342,1.0382 -1.4250663,1.25172"
       sodipodi:t0="0"
       sodipodi:argument="-18.420521"
       sodipodi:radius="2.6231673"
       sodipodi:revolution="3.2"
       sodipodi:expansion="9.7299995"
       sodipodi:cy="281.86584"
       sodipodi:cx="10.022608"
       id="path2713"
       style="fill:none;fill-rule:evenodd;stroke:#005a00;stroke-width:0.26499999;stroke-linecap:round;stroke-linejoin:round;stroke-miterlimit:4;stroke-dasharray:none;stroke-opacity:1"
       sodipodi:type="spiral"
       transform="matrix(0.12439888,-0.62714649,0.62714649,0.12439888,-176.33082,264.8402)"
       inkscape:export-xdpi="96"
       inkscape:export-ydpi="96" />
    <path
       inkscape:export-ydpi="96"
       inkscape:export-xdpi="96"
       transform="matrix(-0.53806223,0.13666089,-0.13666089,-0.53806223,47.596383,445.81364)"
       sodipodi:type="spiral"
       style="fill:none;fill-rule:evenodd;stroke:#005a00;stroke-width:0.26499999;stroke-linecap:round;stroke-linejoin:round;stroke-miterlimit:4;stroke-dasharray:none;stroke-opacity:1"
       id="path2715"
       sodipodi:cx="10.022608"
       sodipodi:cy="281.86584"
       sodipodi:expansion="9.7299995"
       sodipodi:revolution="3.2"
       sodipodi:radius="2.6231673"
       sodipodi:argument="-18.420521"
       sodipodi:t0="0"
       d="m 10.022608,281.86584 c 0,0 0,0 0,0 0,0 0,0 0,0 -10e-7,0 2e-6,0 3e-6,0 2.4e-5,0 3.5e-5,4e-5 3.7e-5,5e-5 1.7e-5,1.9e-4 -2.75e-4,2.6e-4 -4.1e-4,2.6e-4 -0.0011,-1e-5 -0.0014,-0.002 -0.0013,-0.002 4.51e-4,-0.005 0.0065,-0.006 0.01004,-0.005 0.01578,0.003 0.019,0.0236 0.01596,0.0363 -0.01147,0.0477 -0.07386,0.0562 -0.1131914,0.0445 -0.1286725,-0.0383 -0.1484516,-0.20601 -0.1107213,-0.31412 0.1102386,-0.31588 0.5226707,-0.3583 0.7923687,-0.25187 0.717807,0.28326 0.802199,1.22518 0.531589,1.84637 -0.262617,0.60284 -0.813342,1.0382 -1.4250663,1.25172" />
    <path
       inkscape:export-ydpi="96"
       inkscape:export-xdpi="96"
       transform="matrix(-0.34417407,0.14167527,-0.14167527,-0.34417407,47.957214,390.30336)"
       sodipodi:type="spiral"
       style="fill:none;fill-rule:evenodd;stroke:#005a00;stroke-width:0.26499999;stroke-linecap:round;stroke-linejoin:round;stroke-miterlimit:4;stroke-dasharray:none;stroke-opacity:1"
       id="path2717"
       sodipodi:cx="10.022608"
       sodipodi:cy="281.86584"
       sodipodi:expansion="9.7299995"
       sodipodi:revolution="3.2"
       sodipodi:radius="2.6231673"
       sodipodi:argument="-18.420521"
       sodipodi:t0="0"
       d="m 10.022608,281.86584 c 0,0 0,0 0,0 0,0 0,0 0,0 -10e-7,0 2e-6,0 3e-6,0 2.4e-5,0 3.5e-5,4e-5 3.7e-5,5e-5 1.7e-5,1.9e-4 -2.75e-4,2.6e-4 -4.1e-4,2.6e-4 -0.0011,-1e-5 -0.0014,-0.002 -0.0013,-0.002 4.51e-4,-0.005 0.0065,-0.006 0.01004,-0.005 0.01578,0.003 0.019,0.0236 0.01596,0.0363 -0.01147,0.0477 -0.07386,0.0562 -0.1131914,0.0445 -0.1286725,-0.0383 -0.1484516,-0.20601 -0.1107213,-0.31412 0.1102386,-0.31588 0.5226707,-0.3583 0.7923687,-0.25187 0.717807,0.28326 0.802199,1.22518 0.531589,1.84637 -0.262617,0.60284 -0.813342,1.0382 -1.4250663,1.25172" />
    <path
       d="m 10.022608,281.86584 c 0,0 0,0 0,0 0,0 0,0 0,0 -10e-7,0 2e-6,0 3e-6,0 2.4e-5,0 3.5e-5,4e-5 3.7e-5,5e-5 1.7e-5,1.9e-4 -2.75e-4,2.6e-4 -4.1e-4,2.6e-4 -0.0011,-1e-5 -0.0014,-0.002 -0.0013,-0.002 4.51e-4,-0.005 0.0065,-0.006 0.01004,-0.005 0.01578,0.003 0.019,0.0236 0.01596,0.0363 -0.01147,0.0477 -0.07386,0.0562 -0.1131914,0.0445 -0.1286725,-0.0383 -0.1484516,-0.20601 -0.1107213,-0.31412 0.1102386,-0.31588 0.5226707,-0.3583 0.7923687,-0.25187 0.717807,0.28326 0.802199,1.22518 0.531589,1.84637 -0.262617,0.60284 -0.813342,1.0382 -1.4250663,1.25172"
       sodipodi:t0="0"
       sodipodi:argument="-18.420521"
       sodipodi:radius="2.6231673"
       sodipodi:revolution="3.2"
       sodipodi:expansion="9.7299995"
       sodipodi:cy="281.86584"
       sodipodi:cx="10.022608"
       id="path2719"
       style="fill:none;fill-rule:evenodd;stroke:#005a00;stroke-width:0.26499999;stroke-linecap:round;stroke-linejoin:round;stroke-miterlimit:4;stroke-dasharray:none;stroke-opacity:1"
       sodipodi:type="spiral"
       transform="matrix(0.13036419,0.51844796,-0.51844796,0.13036419,150.74545,251.806)"
       inkscape:export-xdpi="96"
       inkscape:export-ydpi="96" />
    <path
       inkscape:export-ydpi="96"
       inkscape:export-xdpi="96"
       transform="matrix(0.48428088,0.22639597,-0.22639597,0.48428088,63.844397,153.83537)"
       sodipodi:type="spiral"
       style="fill:none;fill-rule:evenodd;stroke:#005a00;stroke-width:0.26499999;stroke-linecap:round;stroke-linejoin:round;stroke-miterlimit:4;stroke-dasharray:none;stroke-opacity:1"
       id="path2721"
       sodipodi:cx="10.022608"
       sodipodi:cy="281.86584"
       sodipodi:expansion="9.7299995"
       sodipodi:revolution="3.2"
       sodipodi:radius="2.6231673"
       sodipodi:argument="-18.420521"
       sodipodi:t0="0"
       d="m 10.022608,281.86584 c 0,0 0,0 0,0 0,0 0,0 0,0 -10e-7,0 2e-6,0 3e-6,0 2.4e-5,0 3.5e-5,4e-5 3.7e-5,5e-5 1.7e-5,1.9e-4 -2.75e-4,2.6e-4 -4.1e-4,2.6e-4 -0.0011,-1e-5 -0.0014,-0.002 -0.0013,-0.002 4.51e-4,-0.005 0.0065,-0.006 0.01004,-0.005 0.01578,0.003 0.019,0.0236 0.01596,0.0363 -0.01147,0.0477 -0.07386,0.0562 -0.1131914,0.0445 -0.1286725,-0.0383 -0.1484516,-0.20601 -0.1107213,-0.31412 0.1102386,-0.31588 0.5226707,-0.3583 0.7923687,-0.25187 0.717807,0.28326 0.802199,1.22518 0.531589,1.84637 -0.262617,0.60284 -0.813342,1.0382 -1.4250663,1.25172" />
  </g>
</svg>
