<?xml version="1.0" encoding="UTF-8" standalone="no"?>
<!-- Created with Inkscape (http://www.inkscape.org/) -->

<svg
   xmlns:dc="http://purl.org/dc/elements/1.1/"
   xmlns:cc="http://creativecommons.org/ns#"
   xmlns:rdf="http://www.w3.org/1999/02/22-rdf-syntax-ns#"
   xmlns:svg="http://www.w3.org/2000/svg"
   xmlns="http://www.w3.org/2000/svg"
   xmlns:sodipodi="http://sodipodi.sourceforge.net/DTD/sodipodi-0.dtd"
   xmlns:inkscape="http://www.inkscape.org/namespaces/inkscape"
   width="20mm"
   height="20mm"
   viewBox="0 0 20 20"
   version="1.1"
   id="svg8"
   inkscape:version="0.92.2 5c3e80d, 2017-08-06"
   sodipodi:docname="logo.svg">
  <defs
     id="defs2" />
  <sodipodi:namedview
     id="base"
     pagecolor="#ffffff"
     bordercolor="#666666"
     borderopacity="1.0"
     inkscape:pageopacity="0.0"
     inkscape:pageshadow="2"
     inkscape:zoom="7.9195959"
     inkscape:cx="39.758439"
     inkscape:cy="47.593016"
     inkscape:document-units="mm"
     inkscape:current-layer="layer1"
     showgrid="false"
     inkscape:window-width="1680"
     inkscape:window-height="941"
     inkscape:window-x="0"
     inkscape:window-y="1"
     inkscape:window-maximized="1" />
  <metadata
     id="metadata5">
    <rdf:RDF>
      <cc:Work
         rdf:about="">
        <dc:format>image/svg+xml</dc:format>
        <dc:type
           rdf:resource="http://purl.org/dc/dcmitype/StillImage" />
        <dc:title></dc:title>
      </cc:Work>
    </rdf:RDF>
  </metadata>
  <g
     inkscape:label="Layer 1"
     inkscape:groupmode="layer"
     id="layer1"
     transform="translate(0,-277)">
    <path
       sodipodi:type="spiral"
       style="fill:none;fill-rule:evenodd;stroke:#005a00;stroke-width:0.26458332;stroke-opacity:1"
       id="path819"
       sodipodi:cx="10.423512"
       sodipodi:cy="279.3602"
       sodipodi:expansion="9.7299995"
       sodipodi:revolution="3.2"
       sodipodi:radius="2.6231673"
       sodipodi:argument="-18.420521"
       sodipodi:t0="0"
       d="m 10.423512,279.3602 c 0,0 0,0 0,0 0,0 0,0 0,0 0,0 3e-6,0 4e-6,0 2.4e-5,-1e-5 3.5e-5,3e-5 3.6e-5,5e-5 1.7e-5,1.9e-4 -2.75e-4,2.6e-4 -4.09e-4,2.6e-4 -0.0011,-2e-5 -0.0014,-0.002 -0.0013,-0.002 4.5e-4,-0.005 0.0065,-0.006 0.01004,-0.005 0.01578,0.003 0.01901,0.0236 0.01596,0.0363 -0.01147,0.0477 -0.07386,0.0562 -0.113192,0.0444 -0.128672,-0.0383 -0.148451,-0.20601 -0.110721,-0.31412 0.110239,-0.31587 0.52267,-0.3583 0.792369,-0.25187 0.717807,0.28326 0.802199,1.22518 0.531589,1.84637 -0.262617,0.60284 -0.813342,1.0382 -1.425067,1.25173"
       inkscape:export-xdpi="96"
       inkscape:export-ydpi="96" />
    <path
       d="m 10.022608,281.86584 c 0,0 0,0 0,0 0,0 0,0 0,0 -10e-7,0 2e-6,0 3e-6,0 2.4e-5,0 3.5e-5,4e-5 3.7e-5,5e-5 1.7e-5,1.9e-4 -2.75e-4,2.6e-4 -4.1e-4,2.6e-4 -0.0011,-1e-5 -0.0014,-0.002 -0.0013,-0.002 4.51e-4,-0.005 0.0065,-0.006 0.01004,-0.005 0.01578,0.003 0.019,0.0236 0.01596,0.0363 -0.01147,0.0477 -0.07386,0.0562 -0.1131914,0.0445 -0.1286725,-0.0383 -0.1484516,-0.20601 -0.1107213,-0.31412 0.1102386,-0.31588 0.5226707,-0.3583 0.7923687,-0.25187 0.717807,0.28326 0.802199,1.22518 0.531589,1.84637 -0.262617,0.60284 -0.813342,1.0382 -1.4250663,1.25172"
       sodipodi:t0="0"
       sodipodi:argument="-18.420521"
       sodipodi:radius="2.6231673"
       sodipodi:revolution="3.2"
       sodipodi:expansion="9.7299995"
       sodipodi:cy="281.86584"
       sodipodi:cx="10.022608"
       id="path821"
       style="fill:none;fill-rule:evenodd;stroke:#005a00;stroke-width:0.26458332;stroke-opacity:1"
       sodipodi:type="spiral"
       transform="rotate(74.415162,11.572463,283.48291)"
       inkscape:export-xdpi="96"
       inkscape:export-ydpi="96" />
    <path
       transform="rotate(-166.9106,9.7786513,283.1959)"
       sodipodi:type="spiral"
       style="fill:none;fill-rule:evenodd;stroke:#005a00;stroke-width:0.26458332;stroke-opacity:1"
       id="path823"
       sodipodi:cx="10.022608"
       sodipodi:cy="281.86584"
       sodipodi:expansion="9.7299995"
       sodipodi:revolution="3.2"
       sodipodi:radius="2.6231673"
       sodipodi:argument="-18.420521"
       sodipodi:t0="0"
       d="m 10.022608,281.86584 c 0,0 0,0 0,0 0,0 0,0 0,0 -10e-7,0 2e-6,0 3e-6,0 2.4e-5,0 3.5e-5,4e-5 3.7e-5,5e-5 1.7e-5,1.9e-4 -2.75e-4,2.6e-4 -4.1e-4,2.6e-4 -0.0011,-1e-5 -0.0014,-0.002 -0.0013,-0.002 4.51e-4,-0.005 0.0065,-0.006 0.01004,-0.005 0.01578,0.003 0.019,0.0236 0.01596,0.0363 -0.01147,0.0477 -0.07386,0.0562 -0.1131914,0.0445 -0.1286725,-0.0383 -0.1484516,-0.20601 -0.1107213,-0.31412 0.1102386,-0.31588 0.5226707,-0.3583 0.7923687,-0.25187 0.717807,0.28326 0.802199,1.22518 0.531589,1.84637 -0.262617,0.60284 -0.813342,1.0382 -1.4250663,1.25172"
       inkscape:export-xdpi="96"
       inkscape:export-ydpi="96" />
    <path
       d="m 10.022608,281.86584 c 0,0 0,0 0,0 0,0 0,0 0,0 -10e-7,0 2e-6,0 3e-6,0 2.4e-5,0 3.5e-5,4e-5 3.7e-5,5e-5 1.7e-5,1.9e-4 -2.75e-4,2.6e-4 -4.1e-4,2.6e-4 -0.0011,-1e-5 -0.0014,-0.002 -0.0013,-0.002 4.51e-4,-0.005 0.0065,-0.006 0.01004,-0.005 0.01578,0.003 0.019,0.0236 0.01596,0.0363 -0.01147,0.0477 -0.07386,0.0562 -0.1131914,0.0445 -0.1286725,-0.0383 -0.1484516,-0.20601 -0.1107213,-0.31412 0.1102386,-0.31588 0.5226707,-0.3583 0.7923687,-0.25187 0.717807,0.28326 0.802199,1.22518 0.531589,1.84637 -0.262617,0.60284 -0.813342,1.0382 -1.4250663,1.25172"
       sodipodi:t0="0"
       sodipodi:argument="-18.420521"
       sodipodi:radius="2.6231673"
       sodipodi:revolution="3.2"
       sodipodi:expansion="9.7299995"
       sodipodi:cy="281.86584"
       sodipodi:cx="10.022608"
       id="path825"
       style="fill:none;fill-rule:evenodd;stroke:#005a00;stroke-width:0.26458332;stroke-opacity:1"
       sodipodi:type="spiral"
       transform="rotate(-27.638623,5.1184072,284.86686)"
       inkscape:export-xdpi="96"
       inkscape:export-ydpi="96" />
    <path
       transform="rotate(-146.1323,9.0493888,283.53437)"
       sodipodi:type="spiral"
       style="fill:none;fill-rule:evenodd;stroke:#005a00;stroke-width:0.26458332;stroke-opacity:1"
       id="path827"
       sodipodi:cx="10.022608"
       sodipodi:cy="281.86584"
       sodipodi:expansion="9.7299995"
       sodipodi:revolution="3.2"
       sodipodi:radius="2.6231673"
       sodipodi:argument="-18.420521"
       sodipodi:t0="0"
       d="m 10.022608,281.86584 c 0,0 0,0 0,0 0,0 0,0 0,0 -10e-7,0 2e-6,0 3e-6,0 2.4e-5,0 3.5e-5,4e-5 3.7e-5,5e-5 1.7e-5,1.9e-4 -2.75e-4,2.6e-4 -4.1e-4,2.6e-4 -0.0011,-1e-5 -0.0014,-0.002 -0.0013,-0.002 4.51e-4,-0.005 0.0065,-0.006 0.01004,-0.005 0.01578,0.003 0.019,0.0236 0.01596,0.0363 -0.01147,0.0477 -0.07386,0.0562 -0.1131914,0.0445 -0.1286725,-0.0383 -0.1484516,-0.20601 -0.1107213,-0.31412 0.1102386,-0.31588 0.5226707,-0.3583 0.7923687,-0.25187 0.717807,0.28326 0.802199,1.22518 0.531589,1.84637 -0.262617,0.60284 -0.813342,1.0382 -1.4250663,1.25172"
       inkscape:export-xdpi="96"
       inkscape:export-ydpi="96" />
  </g>
</svg>
