<?xml version="1.0" encoding="UTF-8" standalone="no"?>
<!-- Generated by IcoMoon.io -->

<svg
   xmlns:dc="http://purl.org/dc/elements/1.1/"
   xmlns:cc="http://creativecommons.org/ns#"
   xmlns:rdf="http://www.w3.org/1999/02/22-rdf-syntax-ns#"
   xmlns:svg="http://www.w3.org/2000/svg"
   xmlns="http://www.w3.org/2000/svg"
   xmlns:sodipodi="http://sodipodi.sourceforge.net/DTD/sodipodi-0.dtd"
   xmlns:inkscape="http://www.inkscape.org/namespaces/inkscape"
   version="1.1"
   width="8.4666662mm"
   height="8.4666662mm"
   viewBox="0 0 32 32"
   id="svg6"
   sodipodi:docname="lattes_white.svg"
   inkscape:version="0.92.2 5c3e80d, 2017-08-06">
  <metadata
     id="metadata12">
    <rdf:RDF>
      <cc:Work
         rdf:about="">
        <dc:format>image/svg+xml</dc:format>
        <dc:type
           rdf:resource="http://purl.org/dc/dcmitype/StillImage" />
        <dc:title>lattes-new</dc:title>
      </cc:Work>
    </rdf:RDF>
  </metadata>
  <defs
     id="defs10" />
  <sodipodi:namedview
     pagecolor="#ffffff"
     bordercolor="#666666"
     borderopacity="1"
     objecttolerance="10"
     gridtolerance="10"
     guidetolerance="10"
     inkscape:pageopacity="0"
     inkscape:pageshadow="2"
     inkscape:window-width="1516"
     inkscape:window-height="862"
     id="namedview8"
     showgrid="false"
     units="mm"
     inkscape:zoom="14.75"
     inkscape:cx="17.548658"
     inkscape:cy="16"
     inkscape:window-x="98"
     inkscape:window-y="57"
     inkscape:window-maximized="0"
     inkscape:current-layer="svg6" />
  <title
     id="title2">lattes-new</title>
  <path
     d="M 8.509,26.594 C 5.776,20.994 4.15,17.612 4.15,17.528 c 0,-0.137 0.167,-0.118 1.809,0.204 2.888,0.567 4.431,0.727 7.003,0.728 3.403,10e-4 6.174,-0.538 8.327,-1.621 1.139,-0.573 1.824,-1.081 2.385,-1.769 0.691,-0.848 0.913,-1.432 0.921,-2.415 0.007,-0.935 -0.119,-1.428 -0.66,-2.572 C 23.721,9.631 23.533,9.112 23.515,8.93 23.487,8.637 23.511,8.595 23.727,8.57 c 0.472,-0.056 2.802,2.206 3.66,3.553 1.479,2.323 1.599,4.836 0.347,7.266 -0.769,1.493 -1.619,2.526 -3.042,3.7 -2.365,1.95 -5.114,3.308 -8.91,4.402 -2.039,0.588 -5.336,1.301 -6.015,1.301 -0.144,0 -0.414,-0.472 -1.256,-2.199 z m 1.834,1.068 C 10.314,27.603 9.964,26.884 9.564,26.063 8.732,24.354 8.496,23.755 8.656,23.755 c 0.06,0 0.084,-0.077 0.055,-0.171 C 8.682,23.49 8.699,23.392 8.75,23.366 9.055,23.208 8.686,22.208 8.127,21.675 7.879,21.438 7.79,21.264 7.762,20.958 7.718,20.488 7.403,19.577 7.06,18.926 6.895,18.613 6.857,18.461 6.939,18.438 7.004,18.42 6.714,18.335 6.293,18.251 5.872,18.167 5.471,18.059 5.401,18.013 5.331,17.967 5.273,17.944 5.273,17.963 c 0,0.222 4.915,9.806 5.029,9.806 0.051,0 0.07,-0.048 0.042,-0.107 z M 9.27,17.563 C 6.615,17.219 4.387,16.92 4.318,16.898 4.2,16.86 3.778,15.452 3.54,14.306 3.48,14.016 3.392,13.248 3.344,12.598 3.13,9.698 3.761,7.693 5.452,5.89 8.315,2.84 14.445,2.469 21.361,4.927 22.575,5.359 23.057,5.659 22.834,5.846 22.669,5.984 21.551,5.982 19.619,5.84 16.599,5.618 14.3,6.038 13.115,7.03 c -1.804,1.51 -1.529,4.82 0.798,9.595 0.252,0.517 0.506,1.023 0.564,1.126 0.135,0.237 0.037,0.457 -0.198,0.446 -0.1,-0.005 -2.354,-0.29 -5.009,-0.634 z m 4.34,-0.007 c -0.034,-0.028 -0.122,-0.031 -0.196,-0.007 -0.081,0.027 -0.057,0.047 0.062,0.052 0.108,0.004 0.168,-0.016 0.134,-0.045 z m -0.557,-0.09 c -0.246,-0.083 -8.445,-1.2 -8.527,-1.161 -0.046,0.022 -0.058,0.061 -0.027,0.087 0.065,0.055 8.04,1.109 8.424,1.114 0.14,0.002 0.198,-0.016 0.129,-0.039 z M 9.787,16.612 c -0.07,-0.024 -0.185,-0.024 -0.255,0 -0.07,0.024 -0.013,0.043 0.128,0.043 0.14,0 0.198,-0.019 0.128,-0.043 z M 7.568,16.279 C 6.558,16.121 5.552,15.961 5.332,15.924 5,15.868 4.91,15.806 4.797,15.558 l -0.135,-0.299 0.066,0.299 c 0.036,0.164 0.066,0.341 0.067,0.392 0.001,0.054 0.825,0.2 1.999,0.353 2.654,0.346 3.059,0.334 0.774,-0.024 z m 10.609,-1.314 c -2.119,-0.381 -4.024,-1.695 -4.639,-3.198 -0.295,-0.722 -0.281,-1.664 0.034,-2.228 0.285,-0.51 1.021,-1.1 1.68,-1.347 1.097,-0.411 3.018,-0.247 4.418,0.378 1.329,0.593 2.507,1.636 2.945,2.606 0.562,1.245 0.094,2.634 -1.11,3.297 -0.798,0.439 -2.349,0.668 -3.329,0.492 z m -1.106,-0.996 c -0.384,-0.165 -0.724,-0.279 -0.754,-0.254 -0.06,0.05 1.185,0.565 1.351,0.558 0.056,-0.002 -0.213,-0.139 -0.597,-0.304 z m -1.087,-0.882 c -0.309,-0.229 -0.779,-0.621 -1.045,-0.872 -0.266,-0.251 -0.484,-0.417 -0.485,-0.37 -0.003,0.216 1.77,1.671 2.023,1.661 0.037,-0.002 -0.185,-0.19 -0.494,-0.419 z"
     id="path4"
     inkscape:connector-curvature="0" />
  <path
     style="fill:#ffffff;fill-opacity:1;stroke:none;stroke-width:0.13559322;stroke-miterlimit:4;stroke-dasharray:none;stroke-opacity:1"
     d="M 12.172387,17.911251 C 7.2936417,17.272534 4.6940994,16.927563 4.5013389,16.89327 4.3030804,16.857998 4.2752689,16.817029 4.1098826,16.316622 3.1715157,13.477418 3.0922665,10.364775 3.9065478,8.3303077 4.4279448,7.0276064 5.6596963,5.5418498 6.8028379,4.8367602 8.3777494,3.8653551 10.018519,3.4494402 12.49231,3.3945485 c 1.678597,-0.037247 2.531334,0.024203 4.086857,0.2945059 2.362633,0.4105546 5.829661,1.5022403 6.19903,1.9519296 0.192305,0.2341212 -0.01263,0.2563994 -1.826149,0.1985207 -4.349159,-0.138804 -5.591436,-0.020285 -7.049819,0.6725875 -1.360643,0.6464356 -1.963953,1.7229978 -1.966035,3.5082448 -0.0021,1.809676 0.599824,3.821271 2.011678,6.72279 0.343698,0.706337 0.565677,1.241541 0.541293,1.305085 -0.05616,0.146356 -0.232187,0.13595 -2.316778,-0.136961 z m 1.40339,-0.379049 c -0.06328,-0.06328 -0.09943,-0.06328 -0.162712,0 -0.06328,0.06328 -0.0452,0.08136 0.08136,0.08136 0.126554,0 0.144633,-0.01808 0.08136,-0.08136 z m -0.488135,-0.05424 c 0,-0.03729 -0.02217,-0.0678 -0.04927,-0.0678 -0.0271,0 -1.010999,-0.136574 -2.186441,-0.303498 -3.183856,-0.452137 -6.3244382,-0.853865 -6.3642227,-0.81408 -0.1030166,0.103016 0.271552,0.179821 2.12536,0.435803 2.6369774,0.364125 6.0502727,0.804809 6.2881357,0.811849 0.102542,0.003 0.186441,-0.02499 0.186441,-0.06228 z M 9.7838471,16.619935 c -0.0459,-0.01857 -0.137426,-0.0197 -0.2033898,-0.0025 -0.065964,0.01719 -0.028409,0.03238 0.083455,0.03377 0.1118644,0.0014 0.1658349,-0.01268 0.1199344,-0.03125 z M 9.0503534,16.538059 C 9.0149297,16.505857 8.177472,16.350681 7.1893364,16.193223 6.2012009,16.035766 5.2928679,15.876463 5.1708188,15.839218 5.0142001,15.791423 4.9090736,15.69341 4.8135087,15.506087 4.7390373,15.360112 4.6686674,15.240676 4.6571311,15.240676 c -0.011536,0 0.00948,0.168005 0.046696,0.373343 0.080743,0.445463 0.043797,0.430058 1.5363568,0.640622 2.2415758,0.316232 2.9217248,0.384829 2.8101695,0.283418 z"
     id="path862"
     inkscape:connector-curvature="0" />
  <path
     style="fill:#ffffff;fill-opacity:1;stroke:none;stroke-width:0.13559322;stroke-miterlimit:4;stroke-dasharray:none;stroke-opacity:1"
     d="m 17.697811,14.829546 c -2.26619,-0.627375 -3.944708,-2.037022 -4.278425,-3.593091 -0.102909,-0.479845 -0.03602,-1.219536 0.143881,-1.5911673 0.343522,-0.7096207 1.477669,-1.4527322 2.439629,-1.5984831 0.859739,-0.1302632 2.124597,0.012007 3.128035,0.3518393 1.426275,0.4830333 2.9519,1.7123711 3.435851,2.7685841 0.326574,0.712742 0.299936,1.565976 -0.07059,2.261162 -0.521862,0.979114 -1.583644,1.460053 -3.34075,1.51321 -0.81119,0.02454 -1.023061,0.0083 -1.457627,-0.112054 z m -0.04138,-0.606521 c -0.109077,-0.109078 -1.243778,-0.554024 -1.334267,-0.523202 -0.0969,0.03301 0.385113,0.289359 0.866381,0.460774 0.395583,0.140897 0.56957,0.164111 0.467886,0.06243 z m -1.178958,-0.735059 c 0,-0.03179 -0.182926,-0.201511 -0.406502,-0.377162 -0.223576,-0.175651 -0.673076,-0.547752 -0.99889,-0.82689 -0.603324,-0.516895 -0.857484,-0.572475 -0.381982,-0.08353 0.322996,0.332126 1.246915,1.067289 1.538134,1.223895 0.257041,0.138227 0.24924,0.136233 0.24924,0.06369 z"
     id="path864"
     inkscape:connector-curvature="0" />
  <path
     style="fill:#ffffff;fill-opacity:1;stroke:none;stroke-width:0.13559322;stroke-miterlimit:4;stroke-dasharray:none;stroke-opacity:1"
     d="M 9.5812334,28.55449 C 9.3940697,28.290253 8.3306347,26.15557 6.3879019,22.144366 4.385332,18.009616 4.1743015,17.555146 4.2307231,17.498724 c 0.045336,-0.04533 0.2579652,-0.01083 2.5518337,0.414142 2.510243,0.465056 4.4068852,0.621001 6.8135592,0.560225 3.137652,-0.07924 5.433174,-0.542685 7.482672,-1.510691 1.050792,-0.496303 1.795601,-1.007941 2.395303,-1.645428 0.894482,-0.95084 1.183994,-1.725441 1.124546,-3.008773 -0.03437,-0.741866 -0.179844,-1.247998 -0.686833,-2.3895566 -0.628509,-1.4151793 -0.449372,-1.6803706 0.578501,-0.8564009 0.61479,0.4928319 1.812491,1.7049455 2.353502,2.3818245 0.781915,0.978282 1.336929,2.14232 1.580005,3.313763 0.185985,0.89631 0.139844,2.135477 -0.11382,3.056745 -0.574984,2.088249 -2.041781,4.054464 -4.283056,5.741355 -1.961493,1.476315 -3.948051,2.483572 -6.744344,3.419629 -2.086252,0.69837 -5.841527,1.614097 -7.098145,1.730886 -0.4558809,0.04237 -0.4676748,0.0394 -0.6032136,-0.151954 z m 0.7950446,-0.822288 c 2.78e-4,-0.02797 -0.335952,-0.755515 -0.747172,-1.616774 -0.7928272,-1.660497 -1.0464043,-2.284267 -0.9435741,-2.321079 0.03472,-0.01243 0.063127,-0.109782 0.063127,-0.216338 0,-0.106556 0.030508,-0.212594 0.067797,-0.23564 C 9.0421268,23.202899 8.6877249,22.247569 8.2203502,21.735505 7.8871893,21.370488 7.8286984,21.254548 7.768459,20.839775 7.7093258,20.432618 7.3782266,19.478764 7.1145797,18.956034 7.0074095,18.743548 6.9356141,18.528289 6.9550346,18.47768 6.9813101,18.409207 6.7694324,18.330887 6.1269211,18.17157 5.6520382,18.053818 5.2530359,17.967937 5.2402492,17.980724 c -0.049497,0.0495 3.7629709,7.540648 4.7385416,9.3108 0.2364372,0.429009 0.3958612,0.605756 0.3974872,0.440678 z"
     id="path866"
     inkscape:connector-curvature="0" />
</svg>
